<?xml version="1.0" encoding="UTF-8"?>
<svg width="26px" height="23px" viewBox="0 0 26 23" version="1.1" xmlns="http://www.w3.org/2000/svg" xmlns:xlink="http://www.w3.org/1999/xlink">
    <!-- Generator: Sketch 57.1 (83088) - https://sketch.com -->
    <title>Icons / Small / Computer Vision</title>
    <desc>Created with Sketch.</desc>
    <g id="Icons-/-Small-/-Computer-Vision" stroke="none" stroke-width="1" fill="none" fill-rule="evenodd">
        <g id="Group-2" transform="translate(4.000000, 1.000000)" fill="#D8DDEA" fill-rule="nonzero">
            <g id="Group" transform="translate(4.000000, 4.000000) rotate(-45.000000) translate(-4.000000, -4.000000) translate(1.000000, 2.000000)">
                <path d="M2.86014682,0.741935484 C3.74119521,0.741935484 4.56989513,1.08881207 5.19354839,1.71826174 L5.7206559,1.19676948 C4.9568029,0.425127595 3.94080776,1.86517468e-14 2.86014682,1.86517468e-14 C1.77948589,1.86517468e-14 0.76349075,0.425127595 -1.43751677e-12,1.19676948 L0.526745258,1.71826174 C1.15039851,1.08881207 1.97909844,0.741935484 2.86014682,0.741935484 Z" id="Path"></path>
                <path d="M4.68201865,2.24627487 C4.19530466,1.75430789 3.54828475,1.48387097 2.86014682,1.48387097 C2.1720089,1.48387097 1.52498899,1.75430789 1.038275,2.24627487 L1.56538246,2.76776714 C1.9115345,2.41835466 2.37162144,2.22580645 2.86014682,2.22580645 C3.3486722,2.22580645 3.80875915,2.41835466 4.15491119,2.76776714 L4.68201865,2.24627487 Z" id="Path"></path>
                <path d="M2.07709332,3.2952369 L2.60456308,3.81691028 C2.74150234,3.67852193 2.9787913,3.67852193 3.11573057,3.81691028 L3.64320032,3.2952369 C3.22549932,2.87282636 2.49479433,2.87282636 2.07709332,3.2952369 Z" id="Path"></path>
            </g>
            <g id="Group-Copy" transform="translate(14.000000, 4.000000) scale(-1, 1) rotate(-45.000000) translate(-14.000000, -4.000000) translate(11.000000, 2.000000)">
                <path d="M2.86014682,0.741935484 C3.74119521,0.741935484 4.56989513,1.08881207 5.19354839,1.71826174 L5.7206559,1.19676948 C4.9568029,0.425127595 3.94080776,1.86517468e-14 2.86014682,1.86517468e-14 C1.77948589,1.86517468e-14 0.76349075,0.425127595 -1.43751677e-12,1.19676948 L0.526745258,1.71826174 C1.15039851,1.08881207 1.97909844,0.741935484 2.86014682,0.741935484 Z" id="Path"></path>
                <path d="M4.68201865,2.24627487 C4.19530466,1.75430789 3.54828475,1.48387097 2.86014682,1.48387097 C2.1720089,1.48387097 1.52498899,1.75430789 1.038275,2.24627487 L1.56538246,2.76776714 C1.9115345,2.41835466 2.37162144,2.22580645 2.86014682,2.22580645 C3.3486722,2.22580645 3.80875915,2.41835466 4.15491119,2.76776714 L4.68201865,2.24627487 Z" id="Path"></path>
                <path d="M2.07709332,3.2952369 L2.60456308,3.81691028 C2.74150234,3.67852193 2.9787913,3.67852193 3.11573057,3.81691028 L3.64320032,3.2952369 C3.22549932,2.87282636 2.49479433,2.87282636 2.07709332,3.2952369 Z" id="Path"></path>
            </g>
        </g>
        <rect id="Rectangle" fill="#D8DDEA" x="11" y="10" width="4.5" height="1"></rect>
        <rect id="Rectangle-Copy" fill="#D8DDEA" x="11" y="15.5" width="4.5" height="1"></rect>
        <path d="M16.9032258,15.2374228 L16.9032258,12.6774194 L17.2741935,12.6774194 C17.8877032,12.6774194 18.3870968,12.1780258 18.3870968,11.5645161 C18.3870968,10.9510065 17.8877032,10.4516129 17.2741935,10.4516129 L17.0073794,10.4516129 L17.2631442,9.42855343 L17.2741935,9.33870968 C17.2741935,8.00355184 16.415425,6.84174176 15.1366006,6.44704511 C14.9900611,6.40176094 14.8551143,6.35756366 14.7274131,6.31608334 C14.1850901,6.13947515 13.756702,6 13.1935484,6 C12.6303947,6 12.2020067,6.13947515 11.6591403,6.31644564 C11.5316201,6.35756366 11.3964923,6.40176094 11.2501339,6.44740741 C9.9716718,6.84174176 9.11290323,8.00355184 9.11290323,9.33870968 L9.3829779,10.4516129 L9.11290323,10.4516129 C8.49939357,10.4516129 8,10.9510065 8,11.5645161 C8,12.1780258 8.49939357,12.6774194 9.11290323,12.6774194 L9.48387097,12.6774194 L9.48387097,15.2374228 L9.12032981,17.0560342 L9.11290323,17.1290323 C9.11290323,18.4437216 10.0421339,19.5848822 11.3227697,19.8422773 L11.6201959,19.9035014 C12.1396957,20.0118211 12.5499701,20.0967742 13.1935484,20.0967742 C13.8371267,20.0967742 14.2474011,20.0118211 14.7669009,19.9035014 L15.0646894,19.8422773 C15.7963001,19.6953755 16.4458559,19.2468813 16.8461678,18.6118164 C17.126205,18.1676695 17.2741935,17.6546907 17.2741935,17.1290323 L16.9032258,15.2374228 Z M17.6451613,11.5645161 C17.6451613,11.7692005 17.4785156,11.9354839 17.2741935,11.9354839 L16.9032258,11.9354839 L16.9032258,11.1935484 L17.2741935,11.1935484 C17.4785156,11.1935484 17.6451613,11.3598318 17.6451613,11.5645161 Z M16.5318958,9.29487465 L16.1723396,10.7327369 L16.1612903,15.2741935 L16.4962119,16.9824928 C16.274863,17.1449723 15.794851,17.4409494 15.0186807,17.647264 L15.4137396,16.8575085 L15.7903226,11.1935484 L15.7903226,9.70967742 L15.1878623,7.2627032 C15.9881237,7.62407071 16.5152312,8.40350144 16.5318958,9.29487465 Z M12.2835181,17.8178947 L11.9389963,17.1290323 L14.4481005,17.1290323 L14.1035786,17.8178947 C13.824266,17.8504993 13.5230359,17.8709677 13.1935484,17.8709677 C12.8640609,17.8709677 12.5628308,17.8504993 12.2835181,17.8178947 Z M11.3387097,10.0806452 L15.0487493,10.0806452 L15.0491116,10.8225806 L11.3387097,10.8225806 L11.3387097,10.0806452 Z M14.7011483,16.3870968 L11.6855863,16.3870968 L11.6357737,15.6451613 L14.7504174,15.6451613 L14.7011483,16.3870968 Z M15.0228468,11.5645161 L14.80023,14.9032258 L11.5865045,14.9032258 L11.3635254,11.5645161 L15.0228468,11.5645161 Z M14.3535471,6.97560167 L14.9442335,9.33870968 L11.4428632,9.33870968 L12.0339119,6.97560167 C12.4579527,6.83884357 12.793961,6.74193548 13.1935484,6.74193548 C13.5931357,6.74193548 13.9291441,6.83884357 14.3535471,6.97560167 Z M11.1966986,7.26397112 L10.5967742,9.664031 L10.5974987,11.2180018 L10.9733572,16.8571462 L11.3680538,17.6469018 C10.592608,17.4409494 10.1125961,17.1449723 9.89124715,16.9824928 L10.2183799,15.3464671 L10.2258065,10.8225806 L9.85520096,9.29487465 C9.87186557,8.40422598 10.3978862,7.62551981 11.1966986,7.26397112 Z M9.11290323,11.9354839 C8.90858115,11.9354839 8.74193548,11.7692005 8.74193548,11.5645161 C8.74193548,11.3598318 8.90858115,11.1935484 9.11290323,11.1935484 L9.48387097,11.1935484 L9.48387097,11.9354839 L9.11290323,11.9354839 Z M14.9188744,19.115195 L14.6161952,19.1771437 C14.1195186,19.2802104 13.7606871,19.3548387 13.1935484,19.3548387 C12.6264097,19.3548387 12.2675781,19.2802104 11.7712639,19.1771437 L11.4689469,19.115195 C10.8097908,18.9827841 10.2832267,18.5257765 10.0269185,17.9321919 C10.665425,18.2593246 11.6993526,18.6129032 13.1935484,18.6129032 C14.6922725,18.6129032 15.7280116,18.257151 16.3659746,17.9292937 C16.3237698,18.027832 16.2763121,18.1243778 16.2183484,18.2160329 C15.9216466,18.6871692 15.4597483,19.006513 14.9188744,19.115195 L14.9188744,19.115195 Z" id="Shape" fill="#374970" fill-rule="nonzero"></path>
    </g>
</svg>