<?xml version="1.0" encoding="UTF-8"?>
<svg width="26px" height="23px" viewBox="0 0 26 23" version="1.1" xmlns="http://www.w3.org/2000/svg" xmlns:xlink="http://www.w3.org/1999/xlink">
    <!-- Generator: Sketch 57.1 (83088) - https://sketch.com -->
    <title>Icons / Small / Convolutional Neural Networks</title>
    <desc>Created with Sketch.</desc>
    <g id="Icons-/-Small-/-Convolutional-Neural-Networks" stroke="none" stroke-width="1" fill="none" fill-rule="evenodd">
        <path d="M7.5,8.5 L13.5,11.5" id="Line-11" stroke="#374970" stroke-linecap="square"></path>
        <path d="M13.5,8.5 L19.5,11.5" id="Line-11-Copy" stroke="#374970" stroke-linecap="square" transform="translate(16.500000, 10.000000) scale(-1, 1) translate(-16.500000, -10.000000) "></path>
        <path d="M7.5,11.5 L13.5,14.5" id="Line-11-Copy-3" stroke="#374970" stroke-linecap="square" transform="translate(10.500000, 13.000000) scale(1, -1) translate(-10.500000, -13.000000) "></path>
        <path d="M13.5,11.5 L19.5,14.5" id="Line-11-Copy-2" stroke="#374970" stroke-linecap="square" transform="translate(16.500000, 13.000000) scale(-1, -1) translate(-16.500000, -13.000000) "></path>
        <path d="M13.5,5.5 L13.5,17.5" id="Line-10" stroke="#374970" stroke-linecap="square"></path>
        <path d="M7.5,8.5 L13.5,5.5" id="Line-9" stroke="#374970" stroke-linecap="square"></path>
        <path d="M7.5,17.5 L13.5,14.5" id="Line-9-Copy" stroke="#374970" stroke-linecap="square" transform="translate(10.500000, 16.000000) scale(1, -1) translate(-10.500000, -16.000000) "></path>
        <path d="M13.5,8.5 L19.5,5.5" id="Line-9-Copy-3" stroke="#374970" stroke-linecap="square" transform="translate(16.500000, 7.000000) scale(-1, 1) translate(-16.500000, -7.000000) "></path>
        <path d="M13.5,17.5 L19.5,14.5" id="Line-9-Copy-2" stroke="#374970" stroke-linecap="square" transform="translate(16.500000, 16.000000) scale(-1, -1) translate(-16.500000, -16.000000) "></path>
        <circle id="Oval" stroke="#374970" fill="#D8DDEA" cx="13.5" cy="5.5" r="1.5"></circle>
        <circle id="Oval-Copy" stroke="#374970" fill="#D8DDEA" cx="13.5" cy="11.5" r="1.5"></circle>
        <circle id="Oval-Copy-3" stroke="#374970" fill="#D8DDEA" cx="7.5" cy="8.5" r="1.5"></circle>
        <circle id="Oval-Copy-5" stroke="#374970" fill="#D8DDEA" cx="19.5" cy="8.5" r="1.5"></circle>
        <circle id="Oval-Copy-2" stroke="#374970" fill="#D8DDEA" cx="13.5" cy="17.5" r="1.5"></circle>
        <circle id="Oval-Copy-4" stroke="#374970" fill="#D8DDEA" cx="7.5" cy="14.5" r="1.5"></circle>
        <circle id="Oval-Copy-6" stroke="#374970" fill="#D8DDEA" cx="19.5" cy="14.5" r="1.5"></circle>
    </g>
</svg>