<?xml version="1.0" encoding="UTF-8"?>
<svg width="26px" height="23px" viewBox="0 0 26 23" version="1.1" xmlns="http://www.w3.org/2000/svg" xmlns:xlink="http://www.w3.org/1999/xlink">
    <!-- Generator: Sketch 55.1 (78136) - https://sketchapp.com -->
    <title>Icons / Small / health</title>
    <desc>Created with Sketch.</desc>
    <g id="Icons-/-Small-/-health" stroke="none" stroke-width="1" fill="none" fill-rule="evenodd">
        <g id="Documentation" transform="translate(6.000000, 2.000000)">
            <rect id="Rectangle" fill="#D8DDEA" x="2" y="4" width="12" height="15" rx="2"></rect>
            <path d="M12,1 C13.1045695,1 14,1.8954305 14,3 L14,17 C14,18.1045695 13.1045695,19 12,19 L2,19 C0.8954305,19 0,18.1045695 0,17 L0,3" id="Rectangle" stroke="#374970" stroke-linecap="round" stroke-linejoin="round"></path>
            <rect id="Rectangle" stroke="#374970" stroke-linecap="round" stroke-linejoin="round" x="4" y="0" width="6" height="2" rx="1"></rect>
            <path d="M2.81276475,12 L11.208419,12" id="Line" stroke="#374970" stroke-linecap="round" stroke-linejoin="round"></path>
            <path d="M2.81276475,14 L11.208419,14" id="Line-Copy" stroke="#374970" stroke-linecap="round" stroke-linejoin="round"></path>
            <path d="M2.81276475,16 L7.81449631,16" id="Line-Copy-2" stroke="#374970" stroke-linecap="round" stroke-linejoin="round"></path>
        </g>
        <path d="M16.8326486,8.89061915 L15.2684102,8.89061915 L14.2685683,6.19124415 C14.1693268,5.92288477 13.7756795,5.94108789 13.7041719,6.21983789 L12.6302939,10.400541 L11.5935525,7.41843165 C11.5106669,7.18007227 11.1807048,7.15046289 11.0557838,7.37046289 L10.193268,8.89077539 L9.29582807,8.89077539 C9.13226929,8.89077539 9,9.02163477 9,9.18327539 C9,9.34475977 9.13226929,9.47577539 9.29582807,9.47577539 L10.3665455,9.47577539 C10.4736094,9.47577539 10.5722187,9.41858789 10.624684,9.32632227 L11.2486568,8.22608789 L12.3930942,11.5178067 C12.488385,11.7919473 12.8875632,11.7757754 12.9596239,11.4947598 L14.0421934,7.28085353 L14.783897,9.28374415 C14.8264855,9.39897853 14.937421,9.47561915 15.0617099,9.47561915 L16.8325695,9.47561915 C16.9960493,9.47561915 17.1283976,9.34475977 17.1283976,9.18311915 C17.1283976,9.02163477 16.9960493,8.89061915 16.8326486,8.89061915 L16.8326486,8.89061915 Z" id="Path" fill="#000000" fill-rule="nonzero"></path>
        <polyline id="Path-10" stroke="#374970" stroke-linecap="round" stroke-linejoin="round" points="9.10188813 9.20387863 10.3253904 9.20387863 11.3136305 7.43489246 12.6773334 11.4065621 14 6.193056 15.0499094 9.20387863 17.1283976 9.20387863"></polyline>
    </g>
</svg>