<?xml version="1.0" encoding="UTF-8"?>
<svg width="26px" height="23px" viewBox="0 0 26 23" version="1.1" xmlns="http://www.w3.org/2000/svg" xmlns:xlink="http://www.w3.org/1999/xlink">
    <!-- Generator: Sketch 57.1 (83088) - https://sketch.com -->
    <title>Icons / Small / Keras</title>
    <desc>Created with Sketch.</desc>
    <g id="Icons-/-Small-/-Keras" stroke="none" stroke-width="1" fill="none" fill-rule="evenodd">
        <g id="Tools-/-Keras" transform="translate(4.000000, 3.000000)">
            <g id="Group-5">
                <rect id="Rectangle" fill="#FFFFFF" x="2.51475826" y="2.51475826" width="12.5737913" height="12.5737913"></rect>
                <path d="M9.13078673,7.72641874 C9.22138916,7.65339312 9.30606511,7.59672017 9.37699705,7.52622723 C10.4400137,6.46986305 11.4977118,5.40811271 12.566714,4.35786074 C12.7230564,4.20427055 12.7496496,4.07925744 12.6557462,3.8875504 C12.5620792,3.69632458 12.5153006,3.50716711 12.2210285,3.54025236 C11.9031771,3.57598004 11.5765288,3.52908324 11.2570734,3.55684986 C11.1046482,3.57010422 10.9233674,3.63567532 10.8173663,3.74047764 C9.4728168,5.06989011 8.13971506,6.41090225 6.80300848,7.74825045 C6.74333852,7.80794573 6.67698229,7.86095473 6.57283003,7.95337225 C6.57283003,7.79977361 6.57283847,7.7022823 6.57283003,7.60478254 C6.57279626,6.45814519 6.57322681,5.31149939 6.57244168,4.16486204 C6.57218841,3.78505282 6.34135147,3.55070389 5.96804279,3.54854267 C5.78700679,3.54749583 5.60594546,3.54762246 5.42490101,3.54874528 C5.04668738,3.55110068 4.81485424,3.7822331 4.81479515,4.16139227 C4.81422952,7.20903432 4.81439513,10.2566848 4.81473605,13.3043353 C4.81479515,13.7023883 5.04435731,13.9330732 5.4379021,13.9340188 C5.61895499,13.9344578 5.80001632,13.9351754 5.98105233,13.9336895 C6.33515484,13.9307601 6.57188449,13.691903 6.57228972,13.3340099 C6.57336189,12.4086444 6.57123444,11.4832789 6.5748815,10.5579303 C6.5752614,10.4617475 6.57227284,10.3349531 6.62770477,10.2744642 C7.02646688,9.83932438 7.43992698,9.41764995 7.87145354,8.96800629 C7.9888264,9.13301887 8.05949663,9.2279775 8.12562492,9.32600068 C9.11446783,10.7916798 10.1049063,12.2563036 11.0877806,13.7259844 C11.1882942,13.8762821 11.2924465,13.9466062 11.4768594,13.9379444 C11.7879823,13.923314 12.1009625,13.9213723 12.4118575,13.9381724 C12.6364641,13.9503124 12.7776188,13.8960708 12.8856376,13.6757191 C12.9889457,13.4649663 13.0044879,13.320325 12.8596692,13.1131939 C11.6222015,11.3431541 10.3992038,9.56301737 9.13078673,7.72641874 L9.13078673,7.72641874 Z M0.073591824,17.5373732 L17.5242927,17.5373732 L17.5242927,0.0762376309 L0.073591824,0.0762376309 L0.073591824,17.5373732 Z" id="Fill-3" fill="#E30000"></path>
            </g>
        </g>
    </g>
</svg>