<svg xmlns="http://www.w3.org/2000/svg" xmlns:xlink="http://www.w3.org/1999/xlink" width="508" height="80" viewBox="0 0 508 80">
    <defs>
        <path id="a" d="M24.104 44.637C10.824 44.832 0 33.74 0 20.03 0 12.152 3.572 5.14 9.13.637c1.899-1.54 4.68-.111 4.68 2.387v14.638c0 5.751 4.547 10.402 10.12 10.306 5.456-.094 9.78-4.823 9.78-10.475V3.025C33.71.511 36.51-.893 38.419.66c5.598 4.55 9.174 11.647 9.1 19.607-.12 13.298-10.576 24.182-23.414 24.37z"/>
        <path id="c" d="M24.104 44.637C10.824 44.832 0 33.74 0 20.03 0 12.152 3.572 5.14 9.13.637c1.899-1.54 4.68-.111 4.68 2.387v14.638c0 5.751 4.547 10.402 10.12 10.306 5.456-.094 9.78-4.823 9.78-10.475V3.025C33.71.511 36.51-.893 38.419.66c5.598 4.55 9.174 11.647 9.1 19.607-.12 13.298-10.576 24.182-23.414 24.37z"/>
    </defs>
    <g fill="none" fill-rule="evenodd">
        <path fill="#413e48" d="M115.434 21.496h8.361v4.243c1.165-1.539 2.631-2.756 4.4-3.65 1.767-.895 3.775-1.342 6.021-1.342 2.87 0 5.294.551 7.27 1.654a11.476 11.476 0 0 1 4.586 4.649c1.248-1.914 2.902-3.443 4.96-4.587 2.06-1.144 4.4-1.716 7.02-1.716 4.91 0 8.612 1.363 11.108 4.087 2.496 2.725 3.744 6.459 3.744 11.201V58h-8.611V36.722c0-2.663-.666-4.774-1.997-6.334-1.331-1.56-3.307-2.34-5.928-2.34-2.288 0-4.202.79-5.74 2.371-1.54 1.581-2.31 3.973-2.31 7.176V58h-8.548V36.472c0-2.62-.645-4.68-1.935-6.178-1.29-1.497-3.203-2.246-5.74-2.246-2.372 0-4.337.811-5.897 2.434-1.56 1.622-2.34 4.056-2.34 7.3V58h-8.424V21.496zm60.995 0h8.486V58h-8.486V21.496zm-1.061-8.923c0-1.581.478-2.86 1.435-3.838.957-.977 2.247-1.466 3.869-1.466 1.664 0 2.964.489 3.9 1.466.936.978 1.404 2.257 1.404 3.838 0 1.58-.468 2.85-1.404 3.806-.936.957-2.236 1.435-3.9 1.435-1.706 0-3.016-.478-3.931-1.435-.915-.957-1.373-2.225-1.373-3.806zm26.862 46.176c-4.035 0-7.384-.76-10.046-2.278-2.662-1.518-4.722-3.713-6.178-6.583l7.8-3.744c.874 1.706 2.06 3.016 3.557 3.931 1.498.915 3.245 1.373 5.242 1.373 2.08 0 3.64-.437 4.68-1.31 1.04-.874 1.56-1.914 1.56-3.12 0-.666-.24-1.207-.718-1.623-.478-.416-1.102-.78-1.872-1.092-.77-.312-1.674-.572-2.714-.78-1.04-.208-2.122-.437-3.245-.686a56.294 56.294 0 0 1-4.649-1.186c-1.518-.457-2.88-1.092-4.087-1.903a9.57 9.57 0 0 1-2.933-3.12c-.749-1.269-1.123-2.86-1.123-4.774 0-1.456.343-2.86 1.03-4.212.686-1.352 1.653-2.548 2.901-3.588 1.248-1.04 2.756-1.861 4.524-2.464 1.768-.604 3.734-.905 5.897-.905 3.66 0 6.708.676 9.142 2.028 2.433 1.352 4.357 3.193 5.772 5.522l-7.176 3.62a8.161 8.161 0 0 0-3.12-3.058c-1.332-.749-2.87-1.123-4.618-1.123-1.997 0-3.474.395-4.43 1.185-.957.79-1.436 1.706-1.436 2.746 0 1.206.708 2.07 2.122 2.59s3.494 1.07 6.24 1.653c1.498.291 3.006.676 4.524 1.154a16.873 16.873 0 0 1 4.15 1.935 9.637 9.637 0 0 1 3.026 3.12c.77 1.269 1.154 2.86 1.154 4.773 0 1.29-.29 2.632-.873 4.025-.583 1.394-1.487 2.683-2.715 3.869-1.227 1.186-2.776 2.153-4.648 2.902-1.872.748-4.119 1.123-6.74 1.123zm31.668 0c-4.036 0-7.384-.76-10.047-2.278-2.662-1.518-4.721-3.713-6.177-6.583l7.8-3.744c.873 1.706 2.059 3.016 3.556 3.931 1.498.915 3.245 1.373 5.242 1.373 2.08 0 3.64-.437 4.68-1.31 1.04-.874 1.56-1.914 1.56-3.12 0-.666-.24-1.207-.718-1.623-.478-.416-1.102-.78-1.872-1.092-.77-.312-1.674-.572-2.714-.78-1.04-.208-2.122-.437-3.245-.686a56.294 56.294 0 0 1-4.649-1.186c-1.518-.457-2.88-1.092-4.087-1.903a9.57 9.57 0 0 1-2.933-3.12c-.748-1.269-1.123-2.86-1.123-4.774 0-1.456.343-2.86 1.03-4.212.686-1.352 1.653-2.548 2.901-3.588 1.248-1.04 2.756-1.861 4.524-2.464 1.768-.604 3.734-.905 5.897-.905 3.661 0 6.708.676 9.142 2.028 2.433 1.352 4.357 3.193 5.772 5.522l-7.176 3.62a8.161 8.161 0 0 0-3.12-3.058c-1.331-.749-2.87-1.123-4.618-1.123-1.997 0-3.473.395-4.43 1.185-.957.79-1.435 1.706-1.435 2.746 0 1.206.707 2.07 2.121 2.59 1.415.52 3.495 1.07 6.24 1.653 1.498.291 3.006.676 4.524 1.154a16.873 16.873 0 0 1 4.15 1.935 9.637 9.637 0 0 1 3.026 3.12c.77 1.269 1.155 2.86 1.155 4.773 0 1.29-.292 2.632-.874 4.025-.582 1.394-1.487 2.683-2.714 3.869-1.228 1.186-2.777 2.153-4.65 2.902-1.871.748-4.118 1.123-6.738 1.123zm17.315-37.253h8.486V58h-8.486V21.496zm-1.061-8.923c0-1.581.478-2.86 1.435-3.838.957-.977 2.247-1.466 3.869-1.466 1.664 0 2.964.489 3.9 1.466.936.978 1.404 2.257 1.404 3.838 0 1.58-.468 2.85-1.404 3.806-.936.957-2.236 1.435-3.9 1.435-1.706 0-3.016-.478-3.931-1.435-.915-.957-1.373-2.225-1.373-3.806zm13.134 8.923h8.362v4.493c1.206-1.581 2.735-2.85 4.586-3.807 1.852-.956 3.963-1.435 6.334-1.435 4.534 0 8.08 1.373 10.64 4.119 2.558 2.745 3.837 6.572 3.837 11.481V58h-8.549V37.22c0-2.828-.686-5.064-2.06-6.707-1.372-1.643-3.431-2.465-6.177-2.465-2.413 0-4.44.853-6.084 2.558-1.643 1.706-2.465 4.16-2.465 7.364V58h-8.424V21.496zm66.05 31.637c-1.331 1.747-3.037 3.12-5.117 4.118-2.08.999-4.347 1.498-6.801 1.498-2.205 0-4.379-.427-6.521-1.28a17.934 17.934 0 0 1-5.772-3.712c-1.706-1.623-3.079-3.609-4.119-5.96-1.04-2.35-1.56-5.023-1.56-8.018 0-3.037.51-5.73 1.53-8.08 1.018-2.351 2.37-4.337 4.055-5.96a17.419 17.419 0 0 1 5.803-3.713 18.294 18.294 0 0 1 6.708-1.279c2.413 0 4.639.489 6.677 1.467 2.039.977 3.723 2.298 5.055 3.962v-4.68h8.424v35.568c0 2.58-.406 4.992-1.217 7.238-.811 2.247-2.007 4.212-3.588 5.897-1.581 1.685-3.547 3.016-5.897 3.994-2.35.977-5.065 1.466-8.143 1.466-2.371 0-4.524-.26-6.459-.78-1.934-.52-3.67-1.248-5.21-2.184a18.552 18.552 0 0 1-4.056-3.307 20.888 20.888 0 0 1-2.995-4.212l7.488-4.555c1.331 2.454 2.829 4.285 4.493 5.491 1.664 1.206 3.952 1.81 6.864 1.81 1.58 0 3.016-.292 4.305-.874 1.29-.582 2.382-1.352 3.276-2.309a9.933 9.933 0 0 0 2.06-3.37c.478-1.289.717-2.62.717-3.993v-4.243zM318.79 51.01c1.581 0 3.037-.291 4.368-.873a10.113 10.113 0 0 0 3.432-2.434 12.005 12.005 0 0 0 2.278-3.62c.562-1.372.842-2.849.842-4.43 0-1.539-.28-2.995-.842-4.368-.562-1.372-1.32-2.568-2.278-3.588-.956-1.019-2.1-1.82-3.432-2.402-1.33-.582-2.787-.874-4.368-.874-1.539 0-2.984.292-4.336.874a11.192 11.192 0 0 0-3.526 2.371 10.693 10.693 0 0 0-2.34 3.557c-.562 1.373-.842 2.85-.842 4.43 0 1.581.28 3.068.842 4.462.562 1.394 1.342 2.6 2.34 3.62a10.937 10.937 0 0 0 3.526 2.402c1.352.582 2.797.873 4.336.873z"/>
        <g fill="#76737f">
            <path d="M474.786 58.749c-2.663 0-5.148-.5-7.457-1.498s-4.306-2.36-5.99-4.087a19.062 19.062 0 0 1-3.963-6.022c-.957-2.288-1.435-4.742-1.435-7.363 0-2.62.478-5.085 1.435-7.394.957-2.309 2.278-4.327 3.962-6.053 1.685-1.726 3.682-3.089 5.99-4.087 2.31-.999 4.795-1.498 7.458-1.498 1.497 0 3.005.198 4.524.593a16.95 16.95 0 0 1 4.305 1.778c1.352.79 2.59 1.758 3.713 2.902a14.686 14.686 0 0 1 2.746 3.9v-8.424h3.494V58h-3.494v-8.362a14.686 14.686 0 0 1-2.746 3.9 16.913 16.913 0 0 1-3.713 2.87 17.652 17.652 0 0 1-4.305 1.748 17.903 17.903 0 0 1-4.524.593zm.124-3.307c2.205 0 4.244-.406 6.116-1.217a15.77 15.77 0 0 0 4.93-3.339c1.414-1.414 2.516-3.078 3.306-4.992.79-1.913 1.186-3.952 1.186-6.115 0-2.163-.395-4.201-1.186-6.115-.79-1.914-1.892-3.578-3.307-4.992a16.22 16.22 0 0 0-4.93-3.37c-1.871-.832-3.91-1.248-6.115-1.248-2.121 0-4.118.406-5.99 1.217a15.152 15.152 0 0 0-4.898 3.37 15.874 15.874 0 0 0-3.276 4.992c-.79 1.893-1.186 3.941-1.186 6.146 0 2.163.395 4.202 1.186 6.115.79 1.914 1.882 3.578 3.276 4.992a15.397 15.397 0 0 0 4.898 3.339c1.872.811 3.869 1.217 5.99 1.217zM502.896 21.496h3.557V58h-3.557zM501.648 13.509c0-.874.291-1.591.874-2.153.582-.562 1.31-.842 2.184-.842.956 0 1.705.28 2.246.842.54.562.811 1.28.811 2.153s-.27 1.601-.811 2.184c-.54.582-1.29.873-2.246.873-.957 0-1.706-.29-2.247-.873-.54-.583-.811-1.31-.811-2.184z"/>
        </g>
        <g fill="#76737f">
            <path d="M444.554 55.566c0-.873.29-1.59.873-2.152s1.31-.843 2.184-.843c.957 0 1.706.281 2.247.843.54.561.81 1.279.81 2.152 0 .874-.27 1.602-.81 2.184-.541.583-1.29.874-2.247.874-.957 0-1.705-.291-2.246-.874-.541-.582-.811-1.31-.811-2.184zM342.97 11.824h5.99V58h-5.99zM356.042 21.496h5.99V58h-5.99zM354.794 12.573c0-1.248.384-2.257 1.154-3.027.77-.77 1.8-1.154 3.089-1.154 1.373 0 2.433.385 3.182 1.154.749.77 1.123 1.779 1.123 3.027 0 1.29-.374 2.319-1.123 3.089s-1.81 1.154-3.182 1.154c-1.331 0-2.371-.385-3.12-1.154-.749-.77-1.123-1.8-1.123-3.09zM368.74 21.496h5.865v5.616c1.248-1.914 2.933-3.453 5.054-4.618 2.122-1.164 4.555-1.747 7.301-1.747 2.371 0 4.524.375 6.458 1.123 1.935.75 3.568 1.841 4.899 3.276 1.331 1.436 2.36 3.172 3.089 5.21.728 2.04 1.092 4.348 1.092 6.927V58h-5.99V37.533c0-3.495-.895-6.282-2.684-8.362-1.789-2.08-4.451-3.12-7.987-3.12-1.581 0-3.058.291-4.43.874a10.62 10.62 0 0 0-3.557 2.433c-.999 1.04-1.779 2.278-2.34 3.713-.562 1.435-.843 3.006-.843 4.711V58h-5.928V21.496zM409.142 11.824h5.866v29.453l18.782-19.781h7.364l-14.727 15.475L441.528 58h-6.802l-12.542-17.472-7.176 7.488V58h-5.866z"/>
        </g>
        <g>
            <g transform="rotate(90 14.16 31.16)">
                <mask id="b" fill="#fff">
                    <use xlink:href="#a"/>
                </mask>
                <use fill="#01C8C0" xlink:href="#a"/>
                <g fill="#FC9944" mask="url(#b)">
                    <path d="M48-4.68h50.4v50.4H48z"/>
                </g>
            </g>
            <g transform="rotate(-90 59 6)">
                <mask id="d" fill="#fff">
                    <use xlink:href="#c"/>
                </mask>
                <use fill="#01C8C0" xlink:href="#c"/>
                <g fill="#FC9944" mask="url(#d)">
                    <path d="M48-4.68h50.4v50.4H48z"/>
                </g>
            </g>
        </g>
    </g>
</svg>
