<?xml version="1.0" encoding="UTF-8"?>
<svg width="26px" height="23px" viewBox="0 0 26 23" version="1.1" xmlns="http://www.w3.org/2000/svg" xmlns:xlink="http://www.w3.org/1999/xlink">
    <!-- Generator: Sketch 57.1 (83088) - https://sketch.com -->
    <title>Icons / Small / PyTorch</title>
    <desc>Created with Sketch.</desc>
    <g id="Icons-/-Small-/-PyTorch" stroke="none" stroke-width="1" fill="none" fill-rule="evenodd">
        <path d="M12.9975074,3 L12.9975074,3.05441956 C12.9975074,3.8471139 12.9973064,4.63980823 12.9981775,5.43250256 C12.9982158,5.4670973 12.9891596,5.49167854 12.9643362,5.51662565 C11.7497911,6.73686789 10.5368543,7.95871807 9.32166784,9.17830558 C8.71750181,9.78467163 8.27335218,10.4896322 8.00705387,11.3063012 C7.88456449,11.6819618 7.80625554,12.0667116 7.76924546,12.4605313 C7.7368784,12.8049671 7.73593065,13.1492296 7.77327579,13.4926255 C7.90305996,14.6858987 8.37311473,15.7236255 9.19575125,16.5948488 C9.89621433,17.3366765 10.7433104,17.8304868 11.7297639,18.0805453 C12.0923018,18.1724385 12.4608805,18.2233341 12.8350307,18.2333476 C13.9954871,18.2644183 15.0581817,17.9549432 16.0071561,17.2834316 C17.0776146,16.5259674 17.7751674,15.5022114 18.0993358,14.2250751 C18.1941873,13.8513498 18.2421013,13.4705862 18.2511767,13.0845462 C18.2721325,12.1923041 18.0819604,11.3483387 17.6812541,10.5527847 C17.4387835,10.0714238 17.1272996,9.63917728 16.7508901,9.25444675 L16.7243435,9.22684221 L16.7243435,9.22684221 C16.7224193,9.22474322 16.7217971,9.22144069 16.7222949,9.22254795 C17.1337807,8.80869159 17.5441368,8.395981 17.9593083,7.97841772 C18.0614354,8.089818 18.1686938,8.20147824 18.270103,8.31828003 C18.9898178,9.14732147 19.4905643,10.0938291 19.7699396,11.1581687 C19.8680843,11.532048 19.9331056,11.9117814 19.9695317,12.2969356 C20.0004054,12.6234145 20.007413,12.9504133 19.992383,13.2773255 C19.9490546,14.2199721 19.7283057,15.1193006 19.3259527,15.972413 C18.9894636,16.6859236 18.5447683,17.3236108 17.9939251,17.8864469 C17.2342421,18.6626671 16.3447079,19.2337644 15.3231685,19.5960031 C14.8667939,19.7578464 14.3991611,19.8753607 13.9182503,19.9301269 C13.6510713,19.9605526 13.3816425,19.9708934 13.1132668,19.9907086 C13.0976625,19.9918544 13.0823357,19.996813 13.0668846,20 L12.9328594,20 C12.8841988,19.9963123 12.8355859,19.9906605 12.7868582,19.9892259 C11.8500706,19.9615828 10.9547925,19.7529745 10.1015599,19.3636993 C9.35215855,19.0217958 8.68408169,18.5597687 8.09795161,17.9787927 C7.11881205,17.0082815 6.47632441,15.8482166 6.16976113,14.5007354 C6.08294158,14.1190956 6.03085368,13.7320928 6.01101796,13.340709 C5.99247463,12.9748598 5.99546148,12.6092897 6.03446278,12.2452216 C6.20433003,10.659496 6.82763293,9.28147359 7.91261403,8.11641156 C7.96166722,8.06373473 8.01170645,8.01194371 8.06244453,7.96090371 C9.69475544,6.3189291 11.32721,4.67709891 12.9597028,3.03528799 C12.9694962,3.02544779 12.9799884,3.01631046 12.9975074,3 Z M15.4843995,5.75675676 C15.9872263,5.7567955 16.3875533,6.1640672 16.3870968,6.67509628 C16.3866299,7.18404304 15.9809337,7.59644789 15.4825812,7.59459459 C14.984143,7.59271909 14.5800176,7.17874524 14.5806452,6.67068952 C14.5812742,6.16503571 14.9850569,5.75671802 15.4843995,5.75675676 Z" id="Combined-Shape" fill="#FF3910"></path>
    </g>
</svg>